<svg width="264" height="192" viewBox="0 0 486 341" fill="none" xmlns="http://www.w3.org/2000/svg">
<mask id="path-1-inside-1_143_642" fill="white">
<path fill-rule="evenodd" clip-rule="evenodd" d="M118.443 316.796C118.155 315.916 118 314.976 118 314L118 238C118 233.029 122.029 229 127 229L149 229C153.971 229 158 233.029 158 238L158 320.975C158 320.984 158 320.992 158 321C158 321.008 158 321.016 158 321.025V323H157.901C156.898 333.107 148.371 341 138 341C126.954 341 118 332.046 118 321C118 319.558 118.153 318.151 118.443 316.796Z"/>
</mask>
<path fill-rule="evenodd" clip-rule="evenodd" d="M118.443 316.796C118.155 315.916 118 314.976 118 314L118 238C118 233.029 122.029 229 127 229L149 229C153.971 229 158 233.029 158 238L158 320.975C158 320.984 158 320.992 158 321C158 321.008 158 321.016 158 321.025V323H157.901C156.898 333.107 148.371 341 138 341C126.954 341 118 332.046 118 321C118 319.558 118.153 318.151 118.443 316.796Z" fill="#D7D7D7"/>
<path d="M118 314H117H118ZM118.443 316.796L119.421 317.005L119.477 316.741L119.393 316.485L118.443 316.796ZM118 238H119H118ZM127 229V230V229ZM149 229V228V229ZM158 238H159H158ZM158 320.975H157V320.977L158 320.975ZM158 321.025L157 321.023V321.025H158ZM158 323V324H159V323H158ZM157.901 323V322H156.996L156.906 322.901L157.901 323ZM117 314C117 315.083 117.172 316.127 117.492 317.106L119.393 316.485C119.138 315.704 119 314.869 119 314H117ZM117 238L117 314H119L119 238H117ZM127 228C121.477 228 117 232.477 117 238H119C119 233.582 122.582 230 127 230V228ZM149 228L127 228V230L149 230V228ZM159 238C159 232.477 154.523 228 149 228V230C153.418 230 157 233.582 157 238H159ZM159 320.975L159 238H157L157 320.975H159ZM157 320.977C157 320.984 157 320.992 157 321H159C159 320.991 159 320.983 159 320.974L157 320.977ZM157 321C157 321.008 157 321.016 157 321.023L159 321.026C159 321.017 159 321.009 159 321H157ZM159 323V321.025H157V323H159ZM157.901 324H158V322H157.901V324ZM156.906 322.901C155.953 332.501 147.852 340 138 340V342C148.89 342 157.843 333.712 158.896 323.099L156.906 322.901ZM138 340C127.507 340 119 331.493 119 321H117C117 332.598 126.402 342 138 342V340ZM119 321C119 319.629 119.145 318.292 119.421 317.005L117.465 316.586C117.16 318.01 117 319.487 117 321H119Z" fill="#9F9F9F" mask="url(#path-1-inside-1_143_642)"/>
<mask id="path-3-inside-2_143_642" fill="white">
<path fill-rule="evenodd" clip-rule="evenodd" d="M388.02 28.4923C388.007 28.1629 388 27.8322 388 27.5C388 12.3122 402.103 0 419.5 0C429.866 0 439.062 4.37095 444.802 11.1168C461.388 20.441 486.951 37.6211 485.5 48.5C483.5 63.5 458.5 62.5 453 60.5C449.702 60.3732 445.343 60.7289 447.854 62.669C465.884 67.4806 479 82.1501 479 99.5C479 101.958 478.737 104.362 478.233 106.693C478.413 119.468 475.131 135.904 466 157C460.8 163.4 450.833 173 446.5 177C444.5 178.333 439.1 180.8 433.5 180C427.9 179.2 428.5 180.333 429.5 181C431.167 185.5 435.7 195 440.5 197C441.565 197.444 442.724 197.84 443.932 198.253C449.536 200.17 456.21 202.452 459.5 211.5C462.7 220.3 456.5 228.833 453 232C452.667 232.5 451.6 233.4 450 233C448.4 232.6 443 249.5 440.5 258L404.5 284C403.539 284.549 390.857 286.434 382.841 286.633C380.928 286.875 378.979 287 377 287H158C133.26 287 113.082 267.47 112.042 242.986C111.863 242.995 111.682 243 111.5 243C105.701 243 101 238.299 101 232.5V105.5C101 99.701 105.701 95 111.5 95C112.194 95 112.872 95.0673 113.529 95.1958C114.368 92.0237 115.539 88.986 117 86.1218V41C117 24.4315 130.431 11 147 11H169C173.971 11 178 15.0294 178 20V61H221V53C221 48.0294 225.029 44 230 44H264C268.971 44 273 48.0294 273 53V61H325H331.773C353.883 60.3529 388 53.3754 388 28.5L388.02 28.4923Z"/>
</mask>
<path fill-rule="evenodd" clip-rule="evenodd" d="M388.02 28.4923C388.007 28.1629 388 27.8322 388 27.5C388 12.3122 402.103 0 419.5 0C429.866 0 439.062 4.37095 444.802 11.1168C461.388 20.441 486.951 37.6211 485.5 48.5C483.5 63.5 458.5 62.5 453 60.5C449.702 60.3732 445.343 60.7289 447.854 62.669C465.884 67.4806 479 82.1501 479 99.5C479 101.958 478.737 104.362 478.233 106.693C478.413 119.468 475.131 135.904 466 157C460.8 163.4 450.833 173 446.5 177C444.5 178.333 439.1 180.8 433.5 180C427.9 179.2 428.5 180.333 429.5 181C431.167 185.5 435.7 195 440.5 197C441.565 197.444 442.724 197.84 443.932 198.253C449.536 200.17 456.21 202.452 459.5 211.5C462.7 220.3 456.5 228.833 453 232C452.667 232.5 451.6 233.4 450 233C448.4 232.6 443 249.5 440.5 258L404.5 284C403.539 284.549 390.857 286.434 382.841 286.633C380.928 286.875 378.979 287 377 287H158C133.26 287 113.082 267.47 112.042 242.986C111.863 242.995 111.682 243 111.5 243C105.701 243 101 238.299 101 232.5V105.5C101 99.701 105.701 95 111.5 95C112.194 95 112.872 95.0673 113.529 95.1958C114.368 92.0237 115.539 88.986 117 86.1218V41C117 24.4315 130.431 11 147 11H169C173.971 11 178 15.0294 178 20V61H221V53C221 48.0294 225.029 44 230 44H264C268.971 44 273 48.0294 273 53V61H325H331.773C353.883 60.3529 388 53.3754 388 28.5L388.02 28.4923Z" fill="#DCDCDC"/>
<path d="M388.02 28.4923L388.379 29.4255L389.048 29.168L389.019 28.4517L388.02 28.4923ZM444.802 11.1168L444.041 11.7649L444.156 11.9009L444.312 11.9885L444.802 11.1168ZM485.5 48.5L484.509 48.3678L485.5 48.5ZM453 60.5L453.342 59.5602L453.195 59.5068L453.038 59.5007L453 60.5ZM447.854 62.669L447.243 63.4603L447.402 63.5833L447.597 63.6351L447.854 62.669ZM478.233 106.693L477.256 106.481L477.232 106.593L477.234 106.707L478.233 106.693ZM466 157L466.776 157.631L466.863 157.524L466.918 157.397L466 157ZM446.5 177L447.055 177.832L447.12 177.788L447.178 177.735L446.5 177ZM433.5 180L433.641 179.01L433.5 180ZM429.5 181L430.438 180.653L430.325 180.348L430.055 180.168L429.5 181ZM440.5 197L440.885 196.077H440.885L440.5 197ZM443.932 198.253L444.256 197.307L443.932 198.253ZM459.5 211.5L458.56 211.842L459.5 211.5ZM453 232L452.329 231.258L452.237 231.342L452.168 231.445L453 232ZM440.5 258L441.085 258.811L441.363 258.61L441.459 258.282L440.5 258ZM404.5 284L404.996 284.868L405.042 284.842L405.085 284.811L404.5 284ZM382.841 286.633L382.816 285.633L382.765 285.634L382.715 285.641L382.841 286.633ZM112.042 242.986L113.041 242.944L112.998 241.936L111.991 241.988L112.042 242.986ZM113.529 95.1958L113.337 96.1772L114.256 96.3571L114.495 95.4517L113.529 95.1958ZM117 86.1218L117.891 86.5763L118 86.3621V86.1218H117ZM178 61H177V62H178V61ZM221 61V62H222V61H221ZM273 61H272V62H273V61ZM331.773 61V62H331.787L331.802 61.9996L331.773 61ZM388 28.5L387.641 27.5667L387 27.8134V28.5H388ZM387 27.5C387 27.8457 387.007 28.19 387.021 28.5328L389.019 28.4517C389.006 28.1359 389 27.8186 389 27.5H387ZM419.5 -1C401.683 -1 387 11.6367 387 27.5H389C389 12.9877 402.523 1 419.5 1V-1ZM445.564 10.4687C439.623 3.48756 430.143 -1 419.5 -1V1C429.589 1 438.5 5.25435 444.041 11.7649L445.564 10.4687ZM486.491 48.6322C486.907 45.5125 485.381 42.1262 482.887 38.7826C480.367 35.4046 476.72 31.8872 472.551 28.4534C464.205 21.5809 453.612 14.9221 445.292 10.2451L444.312 11.9885C452.579 16.6357 463.06 23.229 471.279 29.9973C475.392 33.384 478.901 36.7842 481.284 39.9785C483.693 43.2072 484.818 46.048 484.509 48.3678L486.491 48.6322ZM452.658 61.4398C454.175 61.9912 456.887 62.4348 460.073 62.5771C463.283 62.7205 467.066 62.5621 470.75 61.8572C478.032 60.4642 485.4 56.8162 486.491 48.6322L484.509 48.3678C483.6 55.1838 477.468 58.5358 470.375 59.8928C466.872 60.5629 463.249 60.717 460.162 60.5791C457.051 60.4402 454.575 60.0088 453.342 59.5602L452.658 61.4398ZM448.466 61.8776C448.199 61.6715 448.104 61.5455 448.081 61.5068C448.071 61.4895 448.149 61.6262 448.079 61.8257C448.023 61.9847 447.93 62.0099 448.02 61.9564C448.101 61.9084 448.255 61.8424 448.506 61.7759C449.538 61.5015 451.323 61.4363 452.962 61.4993L453.038 59.5007C451.379 59.4369 449.336 59.4861 447.992 59.8429C447.649 59.9342 447.299 60.0583 446.999 60.237C446.707 60.4102 446.355 60.6986 446.192 61.1618C446.015 61.6655 446.138 62.1473 446.357 62.5203C446.564 62.8719 446.882 63.1814 447.243 63.4603L448.466 61.8776ZM480 99.5C480 81.608 466.487 66.6065 448.112 61.7028L447.597 63.6351C465.281 68.3546 478 82.6921 478 99.5H480ZM479.211 106.904C479.729 104.505 480 102.03 480 99.5H478C478 101.886 477.744 104.22 477.256 106.481L479.211 106.904ZM466.918 157.397C476.087 136.214 479.415 119.635 479.233 106.679L477.234 106.707C477.41 119.301 474.175 135.595 465.082 156.603L466.918 157.397ZM447.178 177.735C451.512 173.734 461.526 164.092 466.776 157.631L465.224 156.369C460.074 162.708 450.155 172.266 445.822 176.265L447.178 177.735ZM433.359 180.99C439.287 181.837 444.935 179.245 447.055 177.832L445.945 176.168C444.065 177.421 438.913 179.763 433.641 179.01L433.359 180.99ZM430.055 180.168C429.838 180.024 429.771 179.931 429.779 179.946C429.789 179.963 429.875 180.114 429.835 180.348C429.79 180.614 429.623 180.755 429.556 180.797C429.509 180.827 429.526 180.802 429.684 180.774C429.831 180.748 430.055 180.727 430.378 180.725C431.024 180.721 431.982 180.793 433.359 180.99L433.641 179.01C432.218 178.807 431.151 178.72 430.366 178.725C429.973 178.727 429.63 178.752 429.335 178.804C429.052 178.854 428.753 178.94 428.493 179.103C428.215 179.278 427.938 179.575 427.864 180.012C427.795 180.415 427.933 180.749 428.052 180.954C428.279 181.344 428.662 181.643 428.945 181.832L430.055 180.168ZM440.885 196.077C439.877 195.657 438.81 194.807 437.732 193.617C436.662 192.437 435.63 190.978 434.679 189.417C432.777 186.295 431.253 182.855 430.438 180.653L428.562 181.347C429.413 183.645 430.99 187.205 432.971 190.458C433.962 192.085 435.068 193.657 436.25 194.961C437.423 196.255 438.723 197.343 440.115 197.923L440.885 196.077ZM444.256 197.307C443.04 196.891 441.914 196.506 440.885 196.077L440.115 197.923C441.216 198.382 442.407 198.789 443.609 199.2L444.256 197.307ZM460.44 211.158C456.977 201.636 449.874 199.228 444.256 197.307L443.609 199.2C449.198 201.111 455.442 203.268 458.56 211.842L460.44 211.158ZM453.671 232.742C455.512 231.076 458.027 228.038 459.679 224.263C461.334 220.479 462.154 215.871 460.44 211.158L458.56 211.842C460.046 215.929 459.366 219.987 457.846 223.462C456.323 226.945 453.988 229.758 452.329 231.258L453.671 232.742ZM449.757 233.97C451.87 234.498 453.329 233.309 453.832 232.555L452.168 231.445C452.004 231.691 451.33 232.302 450.243 232.03L449.757 233.97ZM441.459 258.282C442.706 254.042 444.676 247.711 446.53 242.498C447.458 239.886 448.349 237.581 449.099 235.963C449.478 235.147 449.801 234.549 450.056 234.181C450.188 233.992 450.266 233.915 450.287 233.898C450.335 233.86 450.121 234.061 449.757 233.97L450.243 232.03C449.679 231.889 449.236 232.176 449.027 232.345C448.792 232.536 448.588 232.789 448.413 233.041C448.058 233.553 447.677 234.276 447.285 235.121C446.495 236.825 445.579 239.201 444.645 241.827C442.774 247.089 440.794 253.458 439.541 257.718L441.459 258.282ZM405.085 284.811L441.085 258.811L439.915 257.189L403.915 283.189L405.085 284.811ZM382.866 287.632C386.925 287.532 392.139 287.006 396.446 286.439C398.603 286.155 400.544 285.86 402.012 285.6C402.745 285.47 403.369 285.347 403.846 285.237C404.084 285.182 404.296 285.129 404.472 285.076C404.623 285.031 404.827 284.965 404.996 284.868L404.004 283.132C404.053 283.104 404.045 283.117 403.901 283.16C403.781 283.195 403.614 283.238 403.398 283.288C402.967 283.387 402.38 283.503 401.663 283.63C400.232 283.884 398.322 284.175 396.186 284.456C391.908 285.019 386.773 285.535 382.816 285.633L382.866 287.632ZM377 288C379.021 288 381.012 287.872 382.966 287.625L382.715 285.641C380.844 285.878 378.936 286 377 286V288ZM158 288H377V286H158V288ZM111.043 243.029C112.106 268.045 132.722 288 158 288V286C133.798 286 114.059 266.895 113.041 242.944L111.043 243.029ZM111.991 241.988C111.829 241.996 111.665 242 111.5 242V244C111.699 244 111.896 243.995 112.093 243.985L111.991 241.988ZM111.5 242C106.253 242 102 237.747 102 232.5H100C100 238.851 105.149 244 111.5 244V242ZM102 232.5V105.5H100V232.5H102ZM102 105.5C102 100.253 106.253 96 111.5 96V94C105.149 94 100 99.1487 100 105.5H102ZM111.5 96C112.129 96 112.743 96.061 113.337 96.1772L113.721 94.2144C113.001 94.0736 112.259 94 111.5 94V96ZM116.109 85.6673C114.616 88.594 113.42 91.6982 112.562 94.9399L114.495 95.4517C115.317 92.3492 116.461 89.378 117.891 86.5763L116.109 85.6673ZM116 41V86.1218H118V41H116ZM147 10C129.879 10 116 23.8792 116 41H118C118 24.9837 130.984 12 147 12V10ZM169 10H147V12H169V10ZM179 20C179 14.4772 174.523 10 169 10V12C173.418 12 177 15.5817 177 20H179ZM179 61V20H177V61H179ZM221 60H178V62H221V60ZM220 53V61H222V53H220ZM230 43C224.477 43 220 47.4772 220 53H222C222 48.5817 225.582 45 230 45V43ZM264 43H230V45H264V43ZM274 53C274 47.4772 269.523 43 264 43V45C268.418 45 272 48.5817 272 53H274ZM274 61V53H272V61H274ZM325 60H273V62H325V60ZM331.773 60H325V62H331.773V60ZM387 28.5C387 40.3594 378.907 48.0559 367.777 52.9193C356.649 57.782 342.735 59.6787 331.743 60.0004L331.802 61.9996C342.921 61.6742 357.12 59.7585 368.578 54.7519C380.034 49.7459 389 41.516 389 28.5H387ZM387.661 27.559L387.641 27.5667L388.359 29.4333L388.379 29.4255L387.661 27.559Z" fill="#9F9F9F" mask="url(#path-3-inside-2_143_642)"/>
<path d="M245 45.5C250.5 86.5 258.2 192.2 245 287" stroke="#989898"/>
<path d="M249 45.5C254.5 86.5 262.2 192.2 249 287" stroke="#989898"/>
<path d="M375 51C379.528 85.1242 385.867 173.098 375 252" stroke="#989898"/>
<path d="M372 53C376.528 87.1242 382.867 175.098 372 254" stroke="#989898"/>
<mask id="path-9-inside-3_143_642" fill="white">
<path fill-rule="evenodd" clip-rule="evenodd" d="M138 341C149.046 341 158 332.046 158 321C158 309.954 149.046 301 138 301C126.954 301 118 309.954 118 321C118 332.046 126.954 341 138 341ZM138 332C144.075 332 149 327.075 149 321C149 314.925 144.075 310 138 310C131.925 310 127 314.925 127 321C127 327.075 131.925 332 138 332Z"/>
</mask>
<path fill-rule="evenodd" clip-rule="evenodd" d="M138 341C149.046 341 158 332.046 158 321C158 309.954 149.046 301 138 301C126.954 301 118 309.954 118 321C118 332.046 126.954 341 138 341ZM138 332C144.075 332 149 327.075 149 321C149 314.925 144.075 310 138 310C131.925 310 127 314.925 127 321C127 327.075 131.925 332 138 332Z" fill="#DCDCDC"/>
<path d="M157 321C157 331.493 148.493 340 138 340V342C149.598 342 159 332.598 159 321H157ZM138 302C148.493 302 157 310.507 157 321H159C159 309.402 149.598 300 138 300V302ZM119 321C119 310.507 127.507 302 138 302V300C126.402 300 117 309.402 117 321H119ZM138 340C127.507 340 119 331.493 119 321H117C117 332.598 126.402 342 138 342V340ZM148 321C148 326.523 143.523 331 138 331V333C144.627 333 150 327.627 150 321H148ZM138 311C143.523 311 148 315.477 148 321H150C150 314.373 144.627 309 138 309V311ZM128 321C128 315.477 132.477 311 138 311V309C131.373 309 126 314.373 126 321H128ZM138 331C132.477 331 128 326.523 128 321H126C126 327.627 131.373 333 138 333V331Z" fill="#9F9F9F" mask="url(#path-9-inside-3_143_642)"/>
<mask id="path-11-inside-4_143_642" fill="white">
<path fill-rule="evenodd" clip-rule="evenodd" d="M435 138C459.301 138 479 120.763 479 99.5C479 78.237 459.301 61 435 61C410.699 61 391 78.237 391 99.5C391 120.763 410.699 138 435 138ZM435 116C425.059 116 417 108.613 417 99.5C417 90.3873 425.059 83 435 83C444.941 83 453 90.3873 453 99.5C453 108.613 444.941 116 435 116Z"/>
</mask>
<path fill-rule="evenodd" clip-rule="evenodd" d="M435 138C459.301 138 479 120.763 479 99.5C479 78.237 459.301 61 435 61C410.699 61 391 78.237 391 99.5C391 120.763 410.699 138 435 138ZM435 116C425.059 116 417 108.613 417 99.5C417 90.3873 425.059 83 435 83C444.941 83 453 90.3873 453 99.5C453 108.613 444.941 116 435 116Z" fill="#F0F0F0" fill-opacity="0.2"/>
<path d="M478 99.5C478 120.089 458.878 137 435 137V139C459.723 139 480 121.437 480 99.5H478ZM435 62C458.878 62 478 78.9106 478 99.5H480C480 77.5635 459.723 60 435 60V62ZM392 99.5C392 78.9106 411.122 62 435 62V60C410.277 60 390 77.5635 390 99.5H392ZM435 137C411.122 137 392 120.089 392 99.5H390C390 121.437 410.277 139 435 139V137ZM416 99.5C416 109.245 424.59 117 435 117V115C425.527 115 418 107.98 418 99.5H416ZM435 82C424.59 82 416 89.7549 416 99.5H418C418 91.0197 425.527 84 435 84V82ZM454 99.5C454 89.7549 445.41 82 435 82V84C444.473 84 452 91.0197 452 99.5H454ZM435 117C445.41 117 454 109.245 454 99.5H452C452 107.98 444.473 115 435 115V117Z" fill="#9F9F9F" mask="url(#path-11-inside-4_143_642)"/>
<path d="M89.25 122.364C89.25 117.883 92.8826 114.25 97.3636 114.25C99.2339 114.25 100.75 115.766 100.75 117.636V228.364C100.75 230.234 99.2339 231.75 97.3636 231.75C92.8826 231.75 89.25 228.117 89.25 223.636V122.364Z" fill="#B0B0B0" stroke="#9F9F9F" stroke-width="0.5"/>
<path d="M80.25 65.5C80.25 63.1528 82.1528 61.25 84.5 61.25C86.8472 61.25 88.75 63.1528 88.75 65.5V280.5C88.75 282.847 86.8472 284.75 84.5 284.75C82.1528 284.75 80.25 282.847 80.25 280.5V65.5Z" fill="#B0B0B0" stroke="#9F9F9F" stroke-width="0.5"/>
<path d="M71.25 65.5C71.25 63.1528 73.1528 61.25 75.5 61.25C77.8472 61.25 79.75 63.1528 79.75 65.5V280.5C79.75 282.847 77.8472 284.75 75.5 284.75C73.1528 284.75 71.25 282.847 71.25 280.5V65.5Z" fill="#B0B0B0" stroke="#9F9F9F" stroke-width="0.5"/>
<path d="M62.25 65.5C62.25 63.1528 64.1528 61.25 66.5 61.25C68.8472 61.25 70.75 63.1528 70.75 65.5V280.5C70.75 282.847 68.8472 284.75 66.5 284.75C64.1528 284.75 62.25 282.847 62.25 280.5V65.5Z" fill="#B0B0B0" stroke="#9F9F9F" stroke-width="0.5"/>
<path d="M53.25 65.5C53.25 63.1528 55.1528 61.25 57.5 61.25C59.8472 61.25 61.75 63.1528 61.75 65.5V280.5C61.75 282.847 59.8472 284.75 57.5 284.75C55.1528 284.75 53.25 282.847 53.25 280.5V65.5Z" fill="#B0B0B0" stroke="#9F9F9F" stroke-width="0.5"/>
<path d="M44.25 65.5C44.25 63.1528 46.1528 61.25 48.5 61.25C50.8472 61.25 52.75 63.1528 52.75 65.5V280.5C52.75 282.847 50.8472 284.75 48.5 284.75C46.1528 284.75 44.25 282.847 44.25 280.5V65.5Z" fill="#B0B0B0" stroke="#9F9F9F" stroke-width="0.5"/>
<path d="M35.25 65.5C35.25 63.1528 37.1528 61.25 39.5 61.25C41.8472 61.25 43.75 63.1528 43.75 65.5V280.5C43.75 282.847 41.8472 284.75 39.5 284.75C37.1528 284.75 35.25 282.847 35.25 280.5V65.5Z" fill="#B0B0B0" stroke="#9F9F9F" stroke-width="0.5"/>
<path d="M34.75 280.758C34.75 282.963 32.9625 284.75 30.7576 284.75C25.5067 284.75 21.25 280.493 21.25 275.242L21.25 73.9474C21.25 66.9348 26.9348 61.25 33.9474 61.25C34.3907 61.25 34.75 61.6094 34.75 62.0526L34.75 280.758Z" fill="#B0B0B0" stroke="#9F9F9F" stroke-width="0.5"/>
<path d="M20.75 241.758C20.75 243.963 18.9625 245.75 16.7576 245.75C11.5067 245.75 7.24999 241.493 7.24999 236.242L7.25 112.947C7.25 105.935 12.9348 100.25 19.9474 100.25C20.3907 100.25 20.75 100.609 20.75 101.053L20.75 241.758Z" fill="#B0B0B0" stroke="#9F9F9F" stroke-width="0.5"/>
<path d="M6.75 208.879C6.75 209.912 5.91223 210.75 4.87879 210.75C2.32238 210.75 0.249994 208.678 0.249994 206.121L0.249999 141.474C0.25 138.036 3.03644 135.25 6.47369 135.25C6.6263 135.25 6.75001 135.374 6.75001 135.526L6.75 208.879Z" fill="#B0B0B0" stroke="#9F9F9F" stroke-width="0.5"/>
<mask id="path-23-inside-5_143_642" fill="white">
<path fill-rule="evenodd" clip-rule="evenodd" d="M419.5 55C436.897 55 451 42.6878 451 27.5C451 12.3122 436.897 0 419.5 0C402.103 0 388 12.3122 388 27.5C388 42.6878 402.103 55 419.5 55ZM419.5 43C429.717 43 438 35.6127 438 26.5C438 17.3873 429.717 10 419.5 10C409.283 10 401 17.3873 401 26.5C401 35.6127 409.283 43 419.5 43Z"/>
</mask>
<path fill-rule="evenodd" clip-rule="evenodd" d="M419.5 55C436.897 55 451 42.6878 451 27.5C451 12.3122 436.897 0 419.5 0C402.103 0 388 12.3122 388 27.5C388 42.6878 402.103 55 419.5 55ZM419.5 43C429.717 43 438 35.6127 438 26.5C438 17.3873 429.717 10 419.5 10C409.283 10 401 17.3873 401 26.5C401 35.6127 409.283 43 419.5 43Z" fill="#F0F0F0" fill-opacity="0.2"/>
<path d="M450 27.5C450 42.0123 436.477 54 419.5 54V56C437.317 56 452 43.3633 452 27.5H450ZM419.5 1C436.477 1 450 12.9877 450 27.5H452C452 11.6367 437.317 -1 419.5 -1V1ZM389 27.5C389 12.9877 402.523 1 419.5 1V-1C401.683 -1 387 11.6367 387 27.5H389ZM419.5 54C402.523 54 389 42.0123 389 27.5H387C387 43.3633 401.683 56 419.5 56V54ZM437 26.5C437 34.9559 429.276 42 419.5 42V44C430.159 44 439 36.2695 439 26.5H437ZM419.5 11C429.276 11 437 18.0441 437 26.5H439C439 16.7305 430.159 9 419.5 9V11ZM402 26.5C402 18.0441 409.724 11 419.5 11V9C408.841 9 400 16.7305 400 26.5H402ZM419.5 42C409.724 42 402 34.9559 402 26.5H400C400 36.2695 408.841 44 419.5 44V42Z" fill="#9F9F9F" mask="url(#path-23-inside-5_143_642)"/>
<mask id="path-25-inside-6_143_642" fill="white">
<path fill-rule="evenodd" clip-rule="evenodd" d="M139 55C150.598 55 160 45.598 160 34C160 22.402 150.598 13 139 13C127.402 13 118 22.402 118 34C118 45.598 127.402 55 139 55ZM139 45.55C145.379 45.55 150.55 40.3789 150.55 34C150.55 27.6211 145.379 22.45 139 22.45C132.621 22.45 127.45 27.6211 127.45 34C127.45 40.3789 132.621 45.55 139 45.55Z"/>
</mask>
<path fill-rule="evenodd" clip-rule="evenodd" d="M139 55C150.598 55 160 45.598 160 34C160 22.402 150.598 13 139 13C127.402 13 118 22.402 118 34C118 45.598 127.402 55 139 55ZM139 45.55C145.379 45.55 150.55 40.3789 150.55 34C150.55 27.6211 145.379 22.45 139 22.45C132.621 22.45 127.45 27.6211 127.45 34C127.45 40.3789 132.621 45.55 139 45.55Z" fill="#DCDCDC"/>
<path d="M159 34C159 45.0457 150.046 54 139 54V56C151.15 56 161 46.1503 161 34H159ZM139 14C150.046 14 159 22.9543 159 34H161C161 21.8497 151.15 12 139 12V14ZM119 34C119 22.9543 127.954 14 139 14V12C126.85 12 117 21.8497 117 34H119ZM139 54C127.954 54 119 45.0457 119 34H117C117 46.1503 126.85 56 139 56V54ZM149.55 34C149.55 39.8266 144.827 44.55 139 44.55V46.55C145.931 46.55 151.55 40.9312 151.55 34H149.55ZM139 23.45C144.827 23.45 149.55 28.1734 149.55 34H151.55C151.55 27.0688 145.931 21.45 139 21.45V23.45ZM128.45 34C128.45 28.1734 133.173 23.45 139 23.45V21.45C132.069 21.45 126.45 27.0688 126.45 34H128.45ZM139 44.55C133.173 44.55 128.45 39.8266 128.45 34H126.45C126.45 40.9312 132.069 46.55 139 46.55V44.55Z" fill="#9F9F9F" mask="url(#path-25-inside-6_143_642)"/>
<path d="M384.5 249.5C359.7 249.5 351.833 275.667 351 286.5H383L404.5 283.5L440 257.5L442.5 249.5H384.5Z" fill="#D1D1D1" stroke="#9F9F9F"/>
<path d="M390 198.5H442.5C439 197 438.931 197.718 437.5 196C432.5 190 432.5 190 428 181L423.5 190C423.5 190 398.5 192.667 390 190V198.5Z" fill="#C4C4C4" stroke="#9F9F9F"/>
<path fill-rule="evenodd" clip-rule="evenodd" d="M405.5 51.5H383.5V78.5L390.5 84.5L396 82C398.5 78.1667 405.7 69.6 414.5 66C423.3 62.4 412.167 54.8333 405.5 51.5ZM402.489 56H389V72.3636L393.292 76L396.664 74.4848C398.197 72.1616 402.611 66.9697 408.007 64.7879C413.402 62.6061 406.576 58.0202 402.489 56Z" fill="#CDCDCD"/>
<path d="M383.5 51.5V51H383V51.5H383.5ZM405.5 51.5L405.724 51.0528L405.618 51H405.5V51.5ZM383.5 78.5H383V78.73L383.175 78.8796L383.5 78.5ZM390.5 84.5L390.175 84.8796L390.417 85.0871L390.707 84.9552L390.5 84.5ZM396 82L396.207 82.4552L396.339 82.395L396.419 82.2731L396 82ZM389 56V55.5H388.5V56H389ZM402.489 56L402.71 55.5518L402.606 55.5H402.489V56ZM389 72.3636H388.5V72.5953L388.677 72.7451L389 72.3636ZM393.292 76L392.969 76.3815L393.209 76.5853L393.497 76.4561L393.292 76ZM396.664 74.4848L396.869 74.9409L397.001 74.8814L397.081 74.7602L396.664 74.4848ZM408.007 64.7879L408.194 65.2514L408.007 64.7879ZM383.5 52H405.5V51H383.5V52ZM384 78.5V51.5H383V78.5H384ZM390.825 84.1204L383.825 78.1204L383.175 78.8796L390.175 84.8796L390.825 84.1204ZM395.793 81.5448L390.293 84.0448L390.707 84.9552L396.207 82.4552L395.793 81.5448ZM414.311 65.5372C405.375 69.1925 398.106 77.8556 395.581 81.7269L396.419 82.2731C398.894 78.4777 406.025 70.0075 414.689 66.4628L414.311 65.5372ZM405.276 51.9472C408.595 53.6065 412.978 56.2984 415.431 58.987C416.67 60.3452 417.319 61.5977 417.245 62.6491C417.175 63.6373 416.437 64.6673 414.311 65.5372L414.689 66.4628C416.963 65.5327 418.133 64.2669 418.243 62.7196C418.347 61.2357 417.447 59.7131 416.169 58.313C413.589 55.485 409.072 52.7268 405.724 51.0528L405.276 51.9472ZM389 56.5H402.489V55.5H389V56.5ZM389.5 72.3636V56H388.5V72.3636H389.5ZM393.615 75.6185L389.323 71.9822L388.677 72.7451L392.969 76.3815L393.615 75.6185ZM396.459 74.0288L393.087 75.5439L393.497 76.4561L396.869 74.9409L396.459 74.0288ZM407.819 64.3243C402.289 66.5606 397.805 71.8479 396.247 74.2095L397.081 74.7602C398.589 72.4754 402.933 67.3788 408.194 65.2514L407.819 64.3243ZM402.267 56.4482C404.297 57.4512 406.957 59.07 408.437 60.6725C409.189 61.4882 409.536 62.1932 409.497 62.7428C409.462 63.2288 409.097 63.8077 407.819 64.3243L408.194 65.2514C409.614 64.6771 410.419 63.8647 410.494 62.8141C410.565 61.827 409.961 60.8502 409.171 59.9942C407.564 58.2533 404.768 56.569 402.71 55.5518L402.267 56.4482Z" fill="#9F9F9F"/>
<rect x="110" y="114" width="262" height="103" fill="#DCDCDC"/>
<path d="M138.016 132.156H141.438V144.031C141.438 145.271 141.406 146.526 141.344 147.797C141.281 149.057 141.234 149.911 141.203 150.359H141.344L153.016 132.156H157.375V155H153.938V143.219C153.938 141.417 154.036 139.229 154.234 136.656H154.109L142.391 155H138.016V132.156Z" fill="#A1A1A1"/>
<path d="M166.781 144.625C168.458 144.625 169.693 144.443 170.484 144.078C171.276 143.703 171.672 143.13 171.672 142.359C171.672 140.953 170.422 140.25 167.922 140.25C166.255 140.25 164.552 140.625 162.812 141.375L161.625 138.641C163.635 137.818 165.854 137.406 168.281 137.406C170.427 137.406 172.094 137.802 173.281 138.594C174.469 139.375 175.062 140.5 175.062 141.969C175.062 143.906 173.953 145.177 171.734 145.781V145.906C173.12 146.281 174.109 146.818 174.703 147.516C175.307 148.214 175.609 149.078 175.609 150.109C175.609 151.693 174.911 152.958 173.516 153.906C172.13 154.844 170.193 155.312 167.703 155.312C164.984 155.312 162.906 154.953 161.469 154.234V151.062C163.375 151.958 165.349 152.406 167.391 152.406C168.859 152.406 169.99 152.203 170.781 151.797C171.583 151.38 171.984 150.75 171.984 149.906C171.984 149.042 171.583 148.406 170.781 148C169.979 147.594 168.74 147.391 167.062 147.391H164.953V144.625H166.781Z" fill="#A1A1A1"/>
<path d="M194.922 146.328C194.922 149.151 194.198 151.354 192.75 152.938C191.302 154.521 189.286 155.312 186.703 155.312C185.089 155.312 183.661 154.948 182.422 154.219C181.182 153.49 180.229 152.443 179.562 151.078C178.896 149.714 178.562 148.13 178.562 146.328C178.562 143.526 179.281 141.339 180.719 139.766C182.156 138.193 184.182 137.406 186.797 137.406C189.297 137.406 191.276 138.214 192.734 139.828C194.193 141.432 194.922 143.599 194.922 146.328ZM182.344 146.328C182.344 150.318 183.818 152.312 186.766 152.312C189.682 152.312 191.141 150.318 191.141 146.328C191.141 142.38 189.672 140.406 186.734 140.406C185.193 140.406 184.073 140.917 183.375 141.938C182.688 142.958 182.344 144.422 182.344 146.328Z" fill="#A1A1A1"/>
<path d="M198.156 144.625C198.156 140.771 198.807 137.807 200.109 135.734C201.422 133.661 203.505 132.328 206.359 131.734C208.516 131.297 211 130.87 213.812 130.453L214.328 133.688C210.911 134.208 208.411 134.615 206.828 134.906C205.193 135.208 204.01 135.88 203.281 136.922C202.562 137.964 202.146 139.531 202.031 141.625H202.266C202.859 140.76 203.635 140.094 204.594 139.625C205.552 139.146 206.578 138.906 207.672 138.906C209.797 138.906 211.453 139.578 212.641 140.922C213.828 142.266 214.422 144.151 214.422 146.578C214.422 149.359 213.698 151.51 212.25 153.031C210.812 154.552 208.818 155.312 206.266 155.312C203.734 155.312 201.75 154.375 200.312 152.5C198.875 150.625 198.156 148 198.156 144.625ZM206.516 152.312C209.245 152.312 210.609 150.521 210.609 146.938C210.609 143.479 209.375 141.75 206.906 141.75C206.229 141.75 205.573 141.896 204.938 142.188C204.302 142.479 203.714 142.865 203.172 143.344C202.641 143.823 202.229 144.318 201.938 144.828C201.938 147.286 202.328 149.151 203.109 150.422C203.891 151.682 205.026 152.312 206.516 152.312Z" fill="#A1A1A1"/>
<path d="M227.422 155.312C225.234 155.312 223.536 154.526 222.328 152.953H222.109C222.255 154.411 222.328 155.297 222.328 155.609V162.688H218.656V137.719H221.625C221.708 138.042 221.88 138.812 222.141 140.031H222.328C223.474 138.281 225.193 137.406 227.484 137.406C229.641 137.406 231.318 138.188 232.516 139.75C233.724 141.312 234.328 143.505 234.328 146.328C234.328 149.151 233.714 151.354 232.484 152.938C231.266 154.521 229.578 155.312 227.422 155.312ZM226.531 140.406C225.073 140.406 224.005 140.833 223.328 141.688C222.661 142.542 222.328 143.906 222.328 145.781V146.328C222.328 148.432 222.661 149.958 223.328 150.906C223.995 151.844 225.083 152.312 226.594 152.312C227.865 152.312 228.844 151.792 229.531 150.75C230.219 149.708 230.562 148.224 230.562 146.297C230.562 144.359 230.219 142.896 229.531 141.906C228.854 140.906 227.854 140.406 226.531 140.406Z" fill="#A1A1A1"/>
<path d="M249.406 155L248.672 152.594H248.547C247.714 153.646 246.875 154.365 246.031 154.75C245.188 155.125 244.104 155.312 242.781 155.312C241.083 155.312 239.755 154.854 238.797 153.938C237.849 153.021 237.375 151.724 237.375 150.047C237.375 148.266 238.036 146.922 239.359 146.016C240.682 145.109 242.698 144.615 245.406 144.531L248.391 144.438V143.516C248.391 142.411 248.13 141.589 247.609 141.047C247.099 140.495 246.302 140.219 245.219 140.219C244.333 140.219 243.484 140.349 242.672 140.609C241.859 140.87 241.078 141.177 240.328 141.531L239.141 138.906C240.078 138.417 241.104 138.047 242.219 137.797C243.333 137.536 244.385 137.406 245.375 137.406C247.573 137.406 249.229 137.885 250.344 138.844C251.469 139.802 252.031 141.307 252.031 143.359V155H249.406ZM243.938 152.5C245.271 152.5 246.339 152.13 247.141 151.391C247.953 150.641 248.359 149.594 248.359 148.25V146.75L246.141 146.844C244.411 146.906 243.151 147.198 242.359 147.719C241.578 148.229 241.188 149.016 241.188 150.078C241.188 150.849 241.417 151.448 241.875 151.875C242.333 152.292 243.021 152.5 243.938 152.5Z" fill="#A1A1A1"/>
<path d="M265.672 146.109V137.719H269.094V146.109L275.75 137.719H279.625L272.828 146.078L280.234 155H276.188L269.094 146.234V155H265.672V146.234L258.594 155H254.562L261.953 146.078L255.172 137.719H259.047L265.672 146.109Z" fill="#A1A1A1"/>
<path d="M290.453 155.312C287.766 155.312 285.661 154.531 284.141 152.969C282.63 151.396 281.875 149.234 281.875 146.484C281.875 143.661 282.578 141.443 283.984 139.828C285.391 138.214 287.323 137.406 289.781 137.406C292.062 137.406 293.865 138.099 295.188 139.484C296.51 140.87 297.172 142.776 297.172 145.203V147.188H285.656C285.708 148.865 286.161 150.156 287.016 151.062C287.87 151.958 289.073 152.406 290.625 152.406C291.646 152.406 292.594 152.312 293.469 152.125C294.354 151.927 295.302 151.604 296.312 151.156V154.141C295.417 154.568 294.51 154.87 293.594 155.047C292.677 155.224 291.63 155.312 290.453 155.312ZM289.781 140.188C288.615 140.188 287.677 140.557 286.969 141.297C286.271 142.036 285.854 143.115 285.719 144.531H293.562C293.542 143.104 293.198 142.026 292.531 141.297C291.865 140.557 290.948 140.188 289.781 140.188Z" fill="#A1A1A1"/>
<path d="M305.016 137.719V144.656H313.156V137.719H316.828V155H313.156V147.547H305.016V155H301.344V137.719H305.016Z" fill="#A1A1A1"/>
<path d="M325.609 137.719V146.578C325.609 147.609 325.526 149.125 325.359 151.125L334.031 137.719H338.516V155H334.984V146.297C334.984 145.818 335.01 145.042 335.062 143.969C335.125 142.896 335.177 142.115 335.219 141.625L326.578 155H322.094V137.719H325.609Z" fill="#A1A1A1"/>
<path d="M351.297 155.312C348.609 155.312 346.505 154.531 344.984 152.969C343.474 151.396 342.719 149.234 342.719 146.484C342.719 143.661 343.422 141.443 344.828 139.828C346.234 138.214 348.167 137.406 350.625 137.406C352.906 137.406 354.708 138.099 356.031 139.484C357.354 140.87 358.016 142.776 358.016 145.203V147.188H346.5C346.552 148.865 347.005 150.156 347.859 151.062C348.714 151.958 349.917 152.406 351.469 152.406C352.49 152.406 353.438 152.312 354.312 152.125C355.198 151.927 356.146 151.604 357.156 151.156V154.141C356.26 154.568 355.354 154.87 354.438 155.047C353.521 155.224 352.474 155.312 351.297 155.312ZM350.625 140.188C349.458 140.188 348.521 140.557 347.812 141.297C347.115 142.036 346.698 143.115 346.562 144.531H354.406C354.385 143.104 354.042 142.026 353.375 141.297C352.708 140.557 351.792 140.188 350.625 140.188Z" fill="#A1A1A1"/>
<path d="M152.625 186.141C152.625 188.182 151.432 189.417 149.047 189.844V189.969C150.38 190.125 151.401 190.547 152.109 191.234C152.818 191.922 153.172 192.812 153.172 193.906C153.172 195.542 152.547 196.802 151.297 197.688C150.057 198.562 148.25 199 145.875 199H137.625V181.719H145.844C150.365 181.719 152.625 183.193 152.625 186.141ZM149.406 193.688C149.406 192.854 149.083 192.266 148.438 191.922C147.792 191.568 146.823 191.391 145.531 191.391H141.297V196.281H145.625C148.146 196.281 149.406 195.417 149.406 193.688ZM148.953 186.453C148.953 185.766 148.682 185.271 148.141 184.969C147.609 184.656 146.812 184.5 145.75 184.5H141.297V188.656H145.203C146.432 188.656 147.365 188.5 148 188.188C148.635 187.865 148.953 187.286 148.953 186.453Z" fill="#A1A1A1"/>
<path d="M180.609 190.328C180.609 193.151 179.885 195.354 178.438 196.938C176.99 198.521 174.974 199.312 172.391 199.312C170.776 199.312 169.349 198.948 168.109 198.219C166.87 197.49 165.917 196.443 165.25 195.078C164.583 193.714 164.25 192.13 164.25 190.328C164.25 187.526 164.969 185.339 166.406 183.766C167.844 182.193 169.87 181.406 172.484 181.406C174.984 181.406 176.964 182.214 178.422 183.828C179.88 185.432 180.609 187.599 180.609 190.328ZM168.031 190.328C168.031 194.318 169.505 196.312 172.453 196.312C175.37 196.312 176.828 194.318 176.828 190.328C176.828 186.38 175.359 184.406 172.422 184.406C170.88 184.406 169.76 184.917 169.062 185.938C168.375 186.958 168.031 188.422 168.031 190.328Z" fill="#A1A1A1"/>
<path d="M183.844 188.625C183.844 184.771 184.495 181.807 185.797 179.734C187.109 177.661 189.193 176.328 192.047 175.734C194.203 175.297 196.688 174.87 199.5 174.453L200.016 177.688C196.599 178.208 194.099 178.615 192.516 178.906C190.88 179.208 189.698 179.88 188.969 180.922C188.25 181.964 187.833 183.531 187.719 185.625H187.953C188.547 184.76 189.323 184.094 190.281 183.625C191.24 183.146 192.266 182.906 193.359 182.906C195.484 182.906 197.141 183.578 198.328 184.922C199.516 186.266 200.109 188.151 200.109 190.578C200.109 193.359 199.385 195.51 197.938 197.031C196.5 198.552 194.505 199.312 191.953 199.312C189.422 199.312 187.438 198.375 186 196.5C184.562 194.625 183.844 192 183.844 188.625ZM192.203 196.312C194.932 196.312 196.297 194.521 196.297 190.938C196.297 187.479 195.062 185.75 192.594 185.75C191.917 185.75 191.26 185.896 190.625 186.188C189.99 186.479 189.401 186.865 188.859 187.344C188.328 187.823 187.917 188.318 187.625 188.828C187.625 191.286 188.016 193.151 188.797 194.422C189.578 195.682 190.714 196.312 192.203 196.312Z" fill="#A1A1A1"/>
<path d="M213.109 199.312C210.922 199.312 209.224 198.526 208.016 196.953H207.797C207.943 198.411 208.016 199.297 208.016 199.609V206.688H204.344V181.719H207.312C207.396 182.042 207.568 182.812 207.828 184.031H208.016C209.161 182.281 210.88 181.406 213.172 181.406C215.328 181.406 217.005 182.188 218.203 183.75C219.411 185.312 220.016 187.505 220.016 190.328C220.016 193.151 219.401 195.354 218.172 196.938C216.953 198.521 215.266 199.312 213.109 199.312ZM212.219 184.406C210.76 184.406 209.693 184.833 209.016 185.688C208.349 186.542 208.016 187.906 208.016 189.781V190.328C208.016 192.432 208.349 193.958 209.016 194.906C209.682 195.844 210.771 196.312 212.281 196.312C213.552 196.312 214.531 195.792 215.219 194.75C215.906 193.708 216.25 192.224 216.25 190.297C216.25 188.359 215.906 186.896 215.219 185.906C214.542 184.906 213.542 184.406 212.219 184.406Z" fill="#A1A1A1"/>
<path d="M235.094 199L234.359 196.594H234.234C233.401 197.646 232.562 198.365 231.719 198.75C230.875 199.125 229.792 199.312 228.469 199.312C226.771 199.312 225.443 198.854 224.484 197.938C223.536 197.021 223.062 195.724 223.062 194.047C223.062 192.266 223.724 190.922 225.047 190.016C226.37 189.109 228.385 188.615 231.094 188.531L234.078 188.438V187.516C234.078 186.411 233.818 185.589 233.297 185.047C232.786 184.495 231.99 184.219 230.906 184.219C230.021 184.219 229.172 184.349 228.359 184.609C227.547 184.87 226.766 185.177 226.016 185.531L224.828 182.906C225.766 182.417 226.792 182.047 227.906 181.797C229.021 181.536 230.073 181.406 231.062 181.406C233.26 181.406 234.917 181.885 236.031 182.844C237.156 183.802 237.719 185.307 237.719 187.359V199H235.094ZM229.625 196.5C230.958 196.5 232.026 196.13 232.828 195.391C233.641 194.641 234.047 193.594 234.047 192.25V190.75L231.828 190.844C230.099 190.906 228.839 191.198 228.047 191.719C227.266 192.229 226.875 193.016 226.875 194.078C226.875 194.849 227.104 195.448 227.562 195.875C228.021 196.292 228.708 196.5 229.625 196.5Z" fill="#A1A1A1"/>
<path d="M241.844 188.625C241.844 184.771 242.495 181.807 243.797 179.734C245.109 177.661 247.193 176.328 250.047 175.734C252.203 175.297 254.688 174.87 257.5 174.453L258.016 177.688C254.599 178.208 252.099 178.615 250.516 178.906C248.88 179.208 247.698 179.88 246.969 180.922C246.25 181.964 245.833 183.531 245.719 185.625H245.953C246.547 184.76 247.323 184.094 248.281 183.625C249.24 183.146 250.266 182.906 251.359 182.906C253.484 182.906 255.141 183.578 256.328 184.922C257.516 186.266 258.109 188.151 258.109 190.578C258.109 193.359 257.385 195.51 255.938 197.031C254.5 198.552 252.505 199.312 249.953 199.312C247.422 199.312 245.438 198.375 244 196.5C242.562 194.625 241.844 192 241.844 188.625ZM250.203 196.312C252.932 196.312 254.297 194.521 254.297 190.938C254.297 187.479 253.062 185.75 250.594 185.75C249.917 185.75 249.26 185.896 248.625 186.188C247.99 186.479 247.401 186.865 246.859 187.344C246.328 187.823 245.917 188.318 245.625 188.828C245.625 191.286 246.016 193.151 246.797 194.422C247.578 195.682 248.714 196.312 250.203 196.312Z" fill="#A1A1A1"/>
<path d="M277.672 190.328C277.672 193.151 276.948 195.354 275.5 196.938C274.052 198.521 272.036 199.312 269.453 199.312C267.839 199.312 266.411 198.948 265.172 198.219C263.932 197.49 262.979 196.443 262.312 195.078C261.646 193.714 261.312 192.13 261.312 190.328C261.312 187.526 262.031 185.339 263.469 183.766C264.906 182.193 266.932 181.406 269.547 181.406C272.047 181.406 274.026 182.214 275.484 183.828C276.943 185.432 277.672 187.599 277.672 190.328ZM265.094 190.328C265.094 194.318 266.568 196.312 269.516 196.312C272.432 196.312 273.891 194.318 273.891 190.328C273.891 186.38 272.422 184.406 269.484 184.406C267.943 184.406 266.823 184.917 266.125 185.938C265.438 186.958 265.094 188.422 265.094 190.328Z" fill="#A1A1A1"/>
<path d="M294.891 181.719V184.594H289.266V199H285.578V184.594H279.953V181.719H294.891Z" fill="#A1A1A1"/>
<path d="M308.938 181.719H312.969L305.828 190.047L313.578 199H309.359L301.891 190.234V199H298.219V181.719H301.891V190.109L308.938 181.719Z" fill="#A1A1A1"/>
<path d="M323.984 199.312C321.297 199.312 319.193 198.531 317.672 196.969C316.161 195.396 315.406 193.234 315.406 190.484C315.406 187.661 316.109 185.443 317.516 183.828C318.922 182.214 320.854 181.406 323.312 181.406C325.594 181.406 327.396 182.099 328.719 183.484C330.042 184.87 330.703 186.776 330.703 189.203V191.188H319.188C319.24 192.865 319.693 194.156 320.547 195.062C321.401 195.958 322.604 196.406 324.156 196.406C325.177 196.406 326.125 196.312 327 196.125C327.885 195.927 328.833 195.604 329.844 195.156V198.141C328.948 198.568 328.042 198.87 327.125 199.047C326.208 199.224 325.161 199.312 323.984 199.312ZM323.312 184.188C322.146 184.188 321.208 184.557 320.5 185.297C319.802 186.036 319.385 187.115 319.25 188.531H327.094C327.073 187.104 326.729 186.026 326.062 185.297C325.396 184.557 324.479 184.188 323.312 184.188Z" fill="#A1A1A1"/>
</svg>
