<svg width="41" height="46" viewBox="0 0 41 46" fill="none" xmlns="http://www.w3.org/2000/svg">
<path d="M22.8272 26.3578C23.1532 26.6837 23.5203 26.9197 23.912 27.0674L30.2039 33.3593C29.0024 33.9328 27.5529 34.423 25.985 34.536C23.6741 34.7024 20.9937 34.062 18.3136 31.382C18.279 31.3474 18.2446 31.3128 18.2104 31.2781L18.2104 31.2781L18.2037 31.2713L11.7552 24.8236C9.15846 22.1716 8.54746 19.5208 8.72561 17.2299C8.84613 15.6802 9.3337 14.2475 9.90257 13.0579L14.7997 17.9551L16.7946 15.9602C16.6302 16.1536 16.4532 16.3945 16.3009 16.6774C16.0645 17.1169 15.8529 17.725 15.9164 18.4391C15.9822 19.1791 16.3279 19.8585 16.9053 20.4358L22.8272 26.3578ZM32.8416 31.7543L27.3971 26.3098C27.4506 26.2684 27.4991 26.2292 27.5422 26.1933C27.62 26.1286 27.6832 26.0724 27.7297 26.0295C27.7531 26.008 27.7724 25.9897 27.7875 25.9751L27.807 25.9562L27.8143 25.949L27.8174 25.9459L27.8188 25.9446L27.8194 25.9439C27.8197 25.9436 27.82 25.9433 26.7594 24.8826L27.82 25.9433L29.8279 23.9354C30.261 23.5023 30.9369 23.5151 31.3377 23.9158L35.3103 27.8885C35.7111 28.2892 35.7239 28.9651 35.2907 29.3982L33.3163 31.3727C33.3034 31.3839 33.2853 31.3994 33.2623 31.4189C33.2014 31.4703 33.1059 31.5492 32.9785 31.6487C32.9363 31.6818 32.8906 31.717 32.8416 31.7543ZM16.9133 15.826L11.5087 10.4214C11.5458 10.3724 11.581 10.3269 11.614 10.2847C11.7136 10.1573 11.7925 10.0618 11.844 10.0009C11.8635 9.9778 11.8791 9.95972 11.8903 9.94678L13.8648 7.9723C14.2979 7.53916 14.9738 7.55197 15.3745 7.95271L19.3472 11.9254C19.7479 12.3261 19.7607 13.002 19.3276 13.4351L17.3796 15.3831C17.3652 15.3949 17.3497 15.4079 17.3331 15.4219C17.2573 15.4861 17.1574 15.5753 17.046 15.6872C17.0044 15.729 16.9598 15.7753 16.9133 15.826Z" stroke="#9A9A9A" stroke-width="3"/>
</svg>
